<svg width="331" height="36" viewBox="0 0 331 36" fill="none" xmlns="http://www.w3.org/2000/svg">
<path d="M0.8 1.9V2.85C4.5 3.15 5 3.75 5 7.45V28.9C5 33.2 4.7 33.75 0.8 34.05V35H14.8V34.05C10.75 33.85 10.1 33.2 10.1 29.4V20.45C11.45 20.55 12.25 20.6 13.55 20.6C18.9 20.6 21.35 20.15 24.25 17.55C26.1 15.9 27.1 13.65 27.1 11C27.1 8.5 26.25 6.45 24.6 5.05C22.35 3.15 18.75 1.9 13.75 1.9H0.8ZM10.1 5.55C10.1 4.2 10.4 3.75 11.85 3.75C18.65 3.75 21.65 5.75 21.65 11.25C21.65 15.75 18.65 18.6 13.15 18.6C12.15 18.6 11.25 18.55 10.1 18.45V5.55ZM51.832 32.5H51.532C49.232 32.5 48.682 31.95 48.682 29.65V12.5H40.782V13.35C43.782 13.55 44.482 13.95 44.482 16.6V28.15C44.482 29.9 44.132 30.35 43.332 31.05C42.082 32.15 40.582 32.6 39.132 32.6C37.182 32.6 35.582 30.95 35.582 28.65V12.5H28.282V13.2C30.682 13.35 31.382 14.05 31.382 16.55V29.1C31.382 32.95 33.632 35.5 37.482 35.5C39.332 35.5 42.182 34.55 44.632 31.2H44.732V35.3L44.982 35.45C47.482 34.45 49.282 33.9 51.832 33.2V32.5ZM60.832 12.1L60.582 12C57.932 13.05 56.132 13.75 53.182 14.7V15.5C53.882 15.35 54.332 15.3 54.932 15.3C56.182 15.3 56.632 16.1 56.632 18.3V30.8C56.632 33.3 56.282 33.65 53.082 34.25V35H65.082V34.25C61.682 34.1 60.832 33.35 60.832 30.5V19.25C60.832 17.65 62.932 15.15 64.332 15.15C64.632 15.15 65.082 15.4 65.632 15.9C66.432 16.65 66.982 16.9 67.632 16.9C68.832 16.9 69.582 16.05 69.582 14.65C69.582 13 68.532 12 66.832 12C64.732 12 63.332 13.1 60.832 16.7V12.1ZM77.2824 19.95C75.8824 19.1 75.1324 17.65 75.1324 16.55C75.1324 14.2 76.7324 13.15 78.8824 13.15C81.8824 13.15 83.3824 14.8 84.5324 19.3H85.2824L85.0324 12.5H84.4824C84.0824 12.95 83.8824 13 83.6824 13C83.3324 13 82.8324 12.85 82.2824 12.6C81.2324 12.1 80.1324 12.05 78.9324 12.05C74.8324 12.05 72.0324 14.25 72.0324 18.2C72.0324 20.75 73.8824 23.15 78.0324 25.45L80.7324 26.95C82.3824 27.85 83.3824 29.15 83.3824 30.7C83.3824 32.75 81.7824 34.4 79.2324 34.4C75.7824 34.4 73.9324 32.2 72.8824 27.35H72.0824V35.2H72.7324C73.0324 34.7 73.3324 34.6 73.9324 34.6C74.4824 34.6 75.0324 34.65 76.2324 35.05C77.3824 35.45 78.8324 35.5 79.8824 35.5C83.6824 35.5 86.8824 32.6 86.8824 29.25C86.8824 26.4 85.6824 25.05 82.4824 23.1L77.2824 19.95ZM112.916 32.5H112.616C110.316 32.5 109.766 31.95 109.766 29.65V12.5H101.866V13.35C104.866 13.55 105.566 13.95 105.566 16.6V28.15C105.566 29.9 105.216 30.35 104.416 31.05C103.166 32.15 101.666 32.6 100.216 32.6C98.266 32.6 96.666 30.95 96.666 28.65V12.5H89.366V13.2C91.766 13.35 92.466 14.05 92.466 16.55V29.1C92.466 32.95 94.716 35.5 98.566 35.5C100.416 35.5 103.266 34.55 105.716 31.2H105.816V35.3L106.066 35.45C108.566 34.45 110.366 33.9 112.916 33.2V32.5ZM122.916 3.4C122.916 2 121.816 0.849999 120.366 0.849999C118.966 0.849999 117.816 2 117.816 3.4C117.816 4.85 118.916 5.95 120.316 5.95C121.816 5.95 122.916 4.85 122.916 3.4ZM126.566 35V34.25C123.266 34 122.866 33.45 122.866 29.75V12.2L122.666 12L114.916 14.75V15.55C115.816 15.3 116.566 15.3 117.016 15.3C118.266 15.3 118.666 16.1 118.666 18.45V29.8C118.666 33.6 118.166 34.05 114.716 34.25V35H126.566ZM141.132 31.15C140.032 32.45 139.232 32.9 138.132 32.9C136.282 32.9 135.532 31.6 135.532 28.4V14.1H140.582V12.5H135.532V6.7C135.532 6.2 135.432 6.05 135.182 6.05C134.882 6.55 134.482 7 134.182 7.45C132.282 10.2 130.632 12.05 129.332 12.8C128.782 13.15 128.482 13.45 128.482 13.75C128.482 13.9 128.532 14 128.682 14.1H131.332V29.15C131.332 33.35 132.832 35.5 135.732 35.5C138.232 35.5 140.132 34.3 141.782 31.7L141.132 31.15ZM177.748 23.45C177.748 16.55 173.048 12 166.948 12C160.198 12 155.698 16.65 155.698 23.6C155.698 30.55 160.448 35.5 166.498 35.5C173.248 35.5 177.748 30.4 177.748 23.45ZM173.248 24.8C173.248 30.6 171.048 34.1 167.348 34.1C165.548 34.1 163.948 33.2 162.848 31.6C160.998 28.9 160.198 25.3 160.198 21.35C160.198 16.35 162.548 13.4 165.998 13.4C168.148 13.4 169.548 14.4 170.748 15.9C172.348 17.95 173.248 21.4 173.248 24.8ZM180.298 12.5V14.1H184.398V29.8C184.398 33.45 183.848 34.05 180.248 34.25V35H193.248V34.25C189.148 34.1 188.598 33.55 188.598 29.8V14.1H194.698V12.5H188.598V6.7C188.598 3.75 189.498 2.25 191.398 2.25C192.498 2.25 193.148 2.75 194.048 4.2C194.848 5.55 195.448 6 196.298 6C197.498 6 198.398 5.1 198.398 3.95C198.398 2.15 196.198 0.849999 193.198 0.849999C190.048 0.849999 187.448 2.2 186.148 4.45C184.848 6.7 184.448 8.5 184.398 12.5H180.298ZM238.048 10.4L237.698 1.9H209.598L209.248 10.4H210.448C211.448 4.9 212.798 4 218.098 4H221.098V28.85C221.098 33.25 220.548 33.8 216.398 34.05V35H230.998V34.05C226.898 33.85 226.198 33.25 226.198 29.45V4H229.148C234.448 4 235.748 4.9 236.848 10.4H238.048ZM245.744 12.1L245.494 12C242.844 13.05 241.044 13.75 238.094 14.7V15.5C238.794 15.35 239.244 15.3 239.844 15.3C241.094 15.3 241.544 16.1 241.544 18.3V30.8C241.544 33.3 241.194 33.65 237.994 34.25V35H249.994V34.25C246.594 34.1 245.744 33.35 245.744 30.5V19.25C245.744 17.65 247.844 15.15 249.244 15.15C249.544 15.15 249.994 15.4 250.544 15.9C251.344 16.65 251.894 16.9 252.544 16.9C253.744 16.9 254.494 16.05 254.494 14.65C254.494 13 253.444 12 251.744 12C249.644 12 248.244 13.1 245.744 16.7V12.1ZM264.322 3.4C264.322 2 263.222 0.849999 261.772 0.849999C260.372 0.849999 259.222 2 259.222 3.4C259.222 4.85 260.322 5.95 261.722 5.95C263.222 5.95 264.322 4.85 264.322 3.4ZM267.972 35V34.25C264.672 34 264.272 33.45 264.272 29.75V12.2L264.072 12L256.322 14.75V15.55C257.222 15.3 257.972 15.3 258.422 15.3C259.672 15.3 260.072 16.1 260.072 18.45V29.8C260.072 33.6 259.572 34.05 256.122 34.25V35H267.972ZM293.088 12.5H286.138V13.25C287.738 13.4 288.488 13.9 288.488 14.85C288.488 15.35 288.388 15.85 288.188 16.35L283.238 29.3L278.138 16.5C277.838 15.75 277.688 15.1 277.688 14.6C277.688 13.75 278.288 13.4 279.988 13.25V12.5H270.188V13.25C272.088 13.35 272.588 13.85 274.738 19L280.738 33.35C280.938 33.8 280.988 34.15 281.138 34.4C281.488 35.3 281.738 35.7 282.038 35.7C282.338 35.7 282.688 35.05 283.438 33.2L289.838 17.15C291.188 13.8 291.588 13.4 293.088 13.25V12.5ZM303.238 3.4C303.238 2 302.138 0.849999 300.688 0.849999C299.288 0.849999 298.138 2 298.138 3.4C298.138 4.85 299.238 5.95 300.638 5.95C302.138 5.95 303.238 4.85 303.238 3.4ZM306.888 35V34.25C303.588 34 303.188 33.45 303.188 29.75V12.2L302.988 12L295.238 14.75V15.55C296.138 15.3 296.888 15.3 297.338 15.3C298.588 15.3 298.988 16.1 298.988 18.45V29.8C298.988 33.6 298.488 34.05 295.038 34.25V35H306.888ZM330.254 31.7C329.404 32.4 328.904 32.65 328.104 32.65C327.204 32.65 326.554 31.65 326.554 29.35V19.8C326.554 16.75 326.354 15.7 325.154 14.25C323.954 12.8 322.054 12 319.254 12C317.004 12 314.904 12.6 313.504 13.5C311.754 14.6 310.954 16.2 310.954 17.5C310.954 18.85 312.054 19.8 313.104 19.8C314.404 19.8 315.404 18.7 315.404 17.75C315.404 16.7 315.104 16.55 315.104 15.65C315.104 14.3 316.604 13.2 318.604 13.2C320.854 13.2 322.504 14.6 322.504 17.7V20.4C316.854 22.5 315.004 23.45 313.504 24.45C311.554 25.75 310.004 27.7 310.004 30.3C310.004 33.6 312.154 35.5 315.254 35.5C317.404 35.5 319.854 34.85 322.504 31.85H322.554C322.804 34.5 323.904 35.5 325.754 35.5C327.454 35.5 328.754 35 330.254 33.1V31.7ZM322.504 28.65C322.504 30.1 322.204 30.8 320.754 31.8C319.904 32.35 318.854 32.6 317.854 32.6C315.904 32.6 314.404 31.4 314.404 28.75C314.404 27.2 314.904 26 316.104 24.9C317.354 23.75 319.404 22.7 322.504 21.6V28.65Z" fill="#1D506D"/>
</svg>
